<svg xmlns="http://www.w3.org/2000/svg" xmlns:xlink="http://www.w3.org/1999/xlink" preserveAspectRatio="xMidYMid" width="450" height="1300" viewBox="0 0 450 1300">
  <defs>
    <style>
      .cls-1, .cls-2, .cls-4, .cls-6 {
        fill: #a1a1a1;
      }

      .cls-1, .cls-2 {
        stroke: #a1a1a1;
        stroke-width: 1px;
      }

      .cls-1 {
        fill-rule: evenodd;
      }

      .cls-3, .cls-4 {
        font-size: 150px;
      }

      .cls-4, .cls-6 {
        font-family: "Arial";
      }

      .cls-5, .cls-6 {
        font-size: 80px;
      }
    </style>
  </defs>
  <path d="M0.000,35.000 C0.000,35.000 -1.573,16.314 8.000,7.000 C16.902,-1.662 35.000,0.000 35.000,0.000 L35.000,5.000 C35.000,5.000 19.637,3.601 12.000,11.000 C3.668,19.072 5.000,35.000 5.000,35.000 L0.000,35.000 Z" class="cls-1"/>
  <path d="M35.000,1299.906 C35.000,1299.906 16.381,1301.475 7.100,1291.928 C-1.531,1283.049 0.125,1265.000 0.125,1265.000 L5.107,1265.000 C5.107,1265.000 3.713,1280.321 11.085,1287.939 C19.129,1296.249 35.000,1294.920 35.000,1294.920 L35.000,1299.906 Z" class="cls-1"/>
  <path d="M-1.346,968.263 L452.640,1089.908 L451.346,1094.737 L-2.640,973.092 L-1.346,968.263 Z" class="cls-1"/>
  <path d="M4.349,1158.851 L451.046,1275.319 L449.716,1280.149 L3.019,1163.680 L4.349,1158.851 Z" class="cls-1"/>
  <rect x="220" y="25" width="5" height="1005" class="cls-2"/>
  <rect x="245" y="25" width="5" height="1012" class="cls-2"/>
  <rect y="35" width="5" height="1230" class="cls-2"/>
  <rect x="220" y="20" width="30" height="5" class="cls-2"/>
  <rect x="35" width="415" height="5" class="cls-2"/>
  <rect x="35" y="1295" width="415" height="5" class="cls-2"/>
  <text transform="matrix(0, -1, 1, 0, 168, 632)" class="cls-3"><tspan class="cls-4">WC</tspan></text>
  <text transform="matrix(0, -1, 1, 0, 380, 744)" class="cls-5"><tspan class="cls-6">CONDUCTOR</tspan></text>
</svg>
